<svg id="SvgjsSvg1062" width="288" height="288" xmlns="http://www.w3.org/2000/svg" version="1.1" xmlns:xlink="http://www.w3.org/1999/xlink" xmlns:svgjs="http://svgjs.com/svgjs"><path id="SvgjsPath1098" d="M 144,0 C 5,0 0,5 0,144 0,283 5,288 144,288 283,288 288,283 288,144 288,5 283,0 144,0 Z" transform="matrix(0.44,0,0,0.44,80.64,80.64)" fill="#87ddfd"></path><defs id="SvgjsDefs1063"></defs><g id="SvgjsG1064" transform="matrix(0.27,0,0,0.27,105.35711410522461,105.11999373435974)"><svg xmlns="http://www.w3.org/2000/svg" viewBox="0 0 48 48" width="288" height="288"><symbol id="New_Symbol_14" viewBox="-6.5 -6.5 13 13"><path fill="#fffac3" stroke="#e41749" stroke-linecap="round" stroke-linejoin="round" stroke-miterlimit="10" d="M0-6c2.2 0 4.1 1.5 4.7 3.5C6.3-2.5 6.4 0 5 0v1c0 2.8-2.2 5-5 5s-5-2.2-5-5V0c-1.4 0-1.3-2.5.2-2.5C-4.1-4.5-2.2-6 0-6z" class="colorffd4c3 svgShape colorStroke504b46 svgStroke"></path><circle cx="-1.6" cy="-.1" r=".1" fill="#ff8a5c" class="colorffc258 svgShape"></circle><path fill="#4f4547" d="M-1.6.5c-.3 0-.6-.3-.6-.6s.2-.7.6-.7c.3 0 .6.3.6.7s-.3.6-.6.6z" class="color4f4b45 svgShape"></path><circle cx="1.6" cy="-.1" r=".1" fill="#ff8a5c" class="colorffc258 svgShape"></circle><path fill="#4f4547" d="M1.6.5C1.3.5 1 .2 1-.1s.3-.6.6-.6.6.3.6.6-.2.6-.6.6z" class="color4f4b45 svgShape"></path><circle cx="-3" cy="-1.5" r=".5" fill="#fff591" class="colorfabfa5 svgShape"></circle><circle cx="3" cy="-1.5" r=".5" fill="#fff591" class="colorfabfa5 svgShape"></circle><path fill="none" stroke="#e41749" stroke-linecap="round" stroke-linejoin="round" stroke-miterlimit="10" d="M-1.2-3c.8-.5 1.7-.5 2.5 0" class="colorStroke504b46 svgStroke"></path></symbol><g id="Icons" fill="#000000" class="color000 svgShape"><g id="XMLID_537_" fill="#000000" class="color000 svgShape"><ellipse id="XMLID_585_" cx="24.2" cy="44.1" fill="#453c3e" opacity=".15" rx="11" ry="1.5" class="color45413c svgShape"></ellipse><path id="XMLID_571_" fill="#faf8e8" d="M24.2 2.4c-9.8 0-17.7 7.9-17.7 17.7 0 12.5 5.7 10.2 5.7 17.6 0 1.4 1.7 2.7 3.1 2.7 2.8 0 3.3-1.8 3.4-3.4.1-.6.6-1 1.1-1 .6 0 1.2.5 1.2 1.2v.2c0 1.7 1.4 3.1 3.1 3.1s3.1-1.4 3.1-3.1v-.2c0-.6.5-1.1 1.1-1.1.6 0 1.1.4 1.1 1 .2 1.6.7 3.4 3.4 3.4 1.4 0 3.1-1.2 3.1-2.7 0-7.5 5.7-5.2 5.7-17.6.3-9.9-7.6-17.8-17.4-17.8z" class="colore8f4fa svgShape"></path><path id="XMLID_570_" fill="none" stroke="#453c3e" stroke-linecap="round" stroke-linejoin="round" stroke-miterlimit="10" d="M24.2 2.4c-9.8 0-17.7 7.9-17.7 17.7 0 12.5 5.7 10.2 5.7 17.6 0 1.4 1.7 2.7 3.1 2.7 2.8 0 3.3-1.8 3.4-3.4.1-.6.6-1 1.1-1 .6 0 1.2.5 1.2 1.2v.2c0 1.7 1.4 3.1 3.1 3.1s3.1-1.4 3.1-3.1v-.2c0-.6.5-1.1 1.1-1.1.6 0 1.1.4 1.1 1 .2 1.6.7 3.4 3.4 3.4 1.4 0 3.1-1.2 3.1-2.7 0-7.5 5.7-5.2 5.7-17.6.3-9.9-7.6-17.8-17.4-17.8z" class="colorStroke45413c svgStroke"></path><path id="XMLID_569_" fill="#525252" stroke="#453c3e" stroke-linecap="round" stroke-linejoin="round" stroke-miterlimit="10" d="M25 29c-.2-.3-.5-.5-.8-.5s-.6.2-.8.5l-1.2 2.1c-.1.3-.1.6 0 .9.2.3.4.4.8.4h2.3c.3 0 .6-.2.8-.4.2-.3.2-.6 0-.9L25 29z" class="color525252 svgShape colorStroke45413c svgStroke"></path><g id="XMLID_565_" fill="#000000" class="color000 svgShape"><circle id="XMLID_568_" cx="16.5" cy="24.3" r="4.2" fill="#f5587b" class="color87898c svgShape"></circle><path id="XMLID_567_" fill="#696566" d="M16.5 21.9c2 0 3.7 1.4 4.1 3.3.1-.3.1-.6.1-.9 0-2.3-1.9-4.2-4.2-4.2s-4.2 1.9-4.2 4.2c0 .3 0 .6.1.9.4-1.9 2.1-3.3 4.1-3.3z" class="color656769 svgShape"></path><circle id="XMLID_566_" cx="16.5" cy="24.3" r="4.2" fill="none" stroke="#453c3e" stroke-linecap="round" stroke-linejoin="round" stroke-miterlimit="10" class="colorStroke45413c svgStroke"></circle></g><g id="XMLID_561_" fill="#000000" class="color000 svgShape"><circle id="XMLID_564_" cx="31.9" cy="24.3" r="4.2" fill="#f5587b" class="color87898c svgShape"></circle><path id="XMLID_563_" fill="#696566" d="M31.9 21.9c2 0 3.7 1.4 4.1 3.3.1-.3.1-.6.1-.9 0-2.3-1.9-4.2-4.2-4.2s-4.2 1.9-4.2 4.2c0 .3 0 .6.1.9.4-1.9 2.1-3.3 4.1-3.3z" class="color656769 svgShape"></path><circle id="XMLID_562_" cx="31.9" cy="24.3" r="4.2" fill="none" stroke="#453c3e" stroke-linecap="round" stroke-linejoin="round" stroke-miterlimit="10" class="colorStroke45413c svgStroke"></circle></g><ellipse id="XMLID_560_" cx="24.2" cy="6" fill="#ffffff" rx="5.3" ry="1.3" class="colorfff svgShape"></ellipse></g></g></svg></g></svg>